<svg version="1.1" viewBox="0.0 0.0 960.0 720.0" fill="none" stroke="none" stroke-linecap="square" stroke-miterlimit="10" xmlns:xlink="http://www.w3.org/1999/xlink" xmlns="http://www.w3.org/2000/svg"><clipPath id="p.0"><path d="m0 0l960.0 0l0 720.0l-960.0 0l0 -720.0z" clip-rule="nonzero"/></clipPath><g clip-path="url(#p.0)"><path fill="#000000" fill-opacity="0.0" d="m0 0l960.0 0l0 720.0l-960.0 0z" fill-rule="evenodd"/><path fill="#000000" fill-opacity="0.0" d="m529.99884 247.14174c-3.456665 -17.283249 19.091125 -30.422195 32.858276 -41.427826c22.242676 -17.781052 42.71985 -37.71985 62.85565 -57.85565" fill-rule="evenodd"/><path stroke="#ffffff" stroke-width="4.0" stroke-linejoin="round" stroke-linecap="butt" d="m529.99884 247.14174c-3.456665 -17.283249 19.091125 -30.422195 32.858276 -41.427826c22.242676 -17.781052 42.71985 -37.71985 62.85565 -57.85565" fill-rule="evenodd"/><path fill="#000000" fill-opacity="0.0" d="m625.7139 147.86008c16.727478 -20.38086 55.984924 -21.151741 82.44562 -13.091766" fill-rule="evenodd"/><path stroke="#ffffff" stroke-width="4.0" stroke-linejoin="round" stroke-linecap="butt" d="m625.7139 147.86008c16.727478 -20.38086 55.984924 -21.151741 82.44562 -13.091766" fill-rule="evenodd"/><path fill="#000000" fill-opacity="0.0" d="m708.1601 134.83989c61.932495 26.51529 141.0404 54.027557 164.71808 117.02182" fill-rule="evenodd"/><path stroke="#ffffff" stroke-width="4.0" stroke-linejoin="round" stroke-linecap="butt" d="m708.1601 134.83989c61.932495 26.51529 141.0404 54.027557 164.71808 117.02182" fill-rule="evenodd"/><path fill="#000000" fill-opacity="0.0" d="m872.8793 251.86089c5.0551147 12.33461 11.828552 24.230392 14.51416 37.250504" fill-rule="evenodd"/><path stroke="#ffffff" stroke-width="4.0" stroke-linejoin="round" stroke-linecap="butt" d="m872.8793 251.86089c5.0551147 12.33461 11.828552 24.230392 14.51416 37.250504" fill-rule="evenodd"/><path fill="#000000" fill-opacity="0.0" d="m886.1885 287.05423c-9.737976 -2.6968384 -17.689941 -10.315826 -24.170105 -17.873138" fill-rule="evenodd"/><path stroke="#ffffff" stroke-width="4.0" stroke-linejoin="round" stroke-linecap="butt" d="m886.1885 287.05423c-9.737976 -2.6968384 -17.689941 -10.315826 -24.170105 -17.873138" fill-rule="evenodd"/><path fill="#000000" fill-opacity="0.0" d="m863.30444 269.8018c-20.309387 -8.716675 -38.694702 -22.275055 -59.94226 -28.345093" fill-rule="evenodd"/><path stroke="#ffffff" stroke-width="4.0" stroke-linejoin="round" stroke-linecap="butt" d="m863.30444 269.8018c-20.309387 -8.716675 -38.694702 -22.275055 -59.94226 -28.345093" fill-rule="evenodd"/><path fill="#000000" fill-opacity="0.0" d="m808.608 243.26791c-11.891846 -5.1230164 -24.621887 -8.596115 -37.458374 -10.215424" fill-rule="evenodd"/><path stroke="#ffffff" stroke-width="4.0" stroke-linejoin="round" stroke-linecap="butt" d="m808.608 243.26791c-11.891846 -5.1230164 -24.621887 -8.596115 -37.458374 -10.215424" fill-rule="evenodd"/><path fill="#000000" fill-opacity="0.0" d="m772.84924 233.0525c-46.21692 0 -92.150085 -6.7128143 -138.13269 -10.971146" fill-rule="evenodd"/><path stroke="#ffffff" stroke-width="4.0" stroke-linejoin="round" stroke-linecap="butt" d="m772.84924 233.0525c-46.21692 0 -92.150085 -6.7128143 -138.13269 -10.971146" fill-rule="evenodd"/><path fill="#000000" fill-opacity="0.0" d="m636.21967 222.08136c-17.984558 0 -32.932617 15.683609 -50.48999 19.724411" fill-rule="evenodd"/><path stroke="#ffffff" stroke-width="4.0" stroke-linejoin="round" stroke-linecap="butt" d="m636.21967 222.08136c-17.984558 0 -32.932617 15.683609 -50.48999 19.724411" fill-rule="evenodd"/><path fill="#000000" fill-opacity="0.0" d="m586.60895 241.4567c24.295105 4.0125885 49.61206 29.823608 49.61206 54.203766" fill-rule="evenodd"/><path stroke="#ffffff" stroke-width="4.0" stroke-linejoin="round" stroke-linecap="butt" d="m586.60895 241.4567c24.295105 4.0125885 49.61206 29.823608 49.61206 54.203766" fill-rule="evenodd"/><path fill="#000000" fill-opacity="0.0" d="m636.22046 295.6614c14.026367 12.574829 30.052612 23.727295 40.38434 39.62213" fill-rule="evenodd"/><path stroke="#ffffff" stroke-width="4.0" stroke-linejoin="round" stroke-linecap="butt" d="m636.22046 295.6614c14.026367 12.574829 30.052612 23.727295 40.38434 39.62213" fill-rule="evenodd"/><path fill="#000000" fill-opacity="0.0" d="m676.6047 335.2841c-18.303284 -7.4561768 -35.64044 -17.166656 -53.586304 -25.473053" fill-rule="evenodd"/><path stroke="#ffffff" stroke-width="4.0" stroke-linejoin="round" stroke-linecap="butt" d="m676.6047 335.2841c-18.303284 -7.4561768 -35.64044 -17.166656 -53.586304 -25.473053" fill-rule="evenodd"/><path fill="#000000" fill-opacity="0.0" d="m623.5853 310.0c-27.925232 0 -45.906006 32.781372 -71.887146 43.01837c-31.504517 12.413269 -68.9892 10.8489685 -97.17062 29.62204" fill-rule="evenodd"/><path stroke="#ffffff" stroke-width="4.0" stroke-linejoin="round" stroke-linecap="butt" d="m623.5853 310.0c-27.925232 0 -45.906006 32.781372 -71.887146 43.01837c-31.504517 12.413269 -68.9892 10.8489685 -97.17062 29.62204" fill-rule="evenodd"/><path fill="#000000" fill-opacity="0.0" d="m456.7342 381.08923c-22.389343 17.144775 -36.87552 43.884613 -46.55835 70.139984" fill-rule="evenodd"/><path stroke="#ffffff" stroke-width="4.0" stroke-linejoin="round" stroke-linecap="butt" d="m456.7342 381.08923c-22.389343 17.144775 -36.87552 43.884613 -46.55835 70.139984" fill-rule="evenodd"/><path fill="#000000" fill-opacity="0.0" d="m410.77606 450.40683c-25.704529 42.614594 -68.18829 76.052826 -107.23276 110.099945" fill-rule="evenodd"/><path stroke="#ffffff" stroke-width="4.0" stroke-linejoin="round" stroke-linecap="butt" d="m410.77606 450.40683c-25.704529 42.614594 -68.18829 76.052826 -107.23276 110.099945" fill-rule="evenodd"/><path fill="#000000" fill-opacity="0.0" d="m305.17142 559.4829c-15.402039 8.91272 -28.702637 23.348267 -45.977203 27.15393" fill-rule="evenodd"/><path stroke="#ffffff" stroke-width="4.0" stroke-linejoin="round" stroke-linecap="butt" d="m305.17142 559.4829c-15.402039 8.91272 -28.702637 23.348267 -45.977203 27.15393" fill-rule="evenodd"/><path fill="#000000" fill-opacity="0.0" d="m259.2362 586.78217c25.567932 -23.229614 55.667725 -41.337036 80.09451 -65.763794" fill-rule="evenodd"/><path stroke="#ffffff" stroke-width="4.0" stroke-linejoin="round" stroke-linecap="butt" d="m259.2362 586.78217c25.567932 -23.229614 55.667725 -41.337036 80.09451 -65.763794" fill-rule="evenodd"/><path fill="#000000" fill-opacity="0.0" d="m338.7034 521.55365c13.289429 -20.494965 40.91385 -40.446686 35.322357 -64.07071" fill-rule="evenodd"/><path stroke="#ffffff" stroke-width="4.0" stroke-linejoin="round" stroke-linecap="butt" d="m338.7034 521.55365c13.289429 -20.494965 40.91385 -40.446686 35.322357 -64.07071" fill-rule="evenodd"/><path fill="#000000" fill-opacity="0.0" d="m376.01376 457.80316c-5.8605347 1.8066711 -16.982574 3.3498535 -18.370728 -2.2309875" fill-rule="evenodd"/><path stroke="#ffffff" stroke-width="4.0" stroke-linejoin="round" stroke-linecap="butt" d="m376.01376 457.80316c-5.8605347 1.8066711 -16.982574 3.3498535 -18.370728 -2.2309875" fill-rule="evenodd"/><path fill="#000000" fill-opacity="0.0" d="m357.64322 456.05014c-0.34906006 -5.524994 -9.653503 -5.1015015 -11.525116 -10.215454" fill-rule="evenodd"/><path stroke="#ffffff" stroke-width="4.0" stroke-linejoin="round" stroke-linecap="butt" d="m357.64322 456.05014c-0.34906006 -5.524994 -9.653503 -5.1015015 -11.525116 -10.215454" fill-rule="evenodd"/><path fill="#000000" fill-opacity="0.0" d="m347.29315 447.3439c-6.3460693 2.3322449 -18.179443 0.94317627 -19.715729 -5.175934" fill-rule="evenodd"/><path stroke="#ffffff" stroke-width="4.0" stroke-linejoin="round" stroke-linecap="butt" d="m347.29315 447.3439c-6.3460693 2.3322449 -18.179443 0.94317627 -19.715729 -5.175934" fill-rule="evenodd"/><path fill="#000000" fill-opacity="0.0" d="m330.13165 440.95395c-3.6851501 0 -9.036102 2.256897 -11.0494995 -0.29925537c-3.060913 -3.8860168 1.1022949 -9.3732605 3.261078 -13.654694" fill-rule="evenodd"/><path stroke="#ffffff" stroke-width="4.0" stroke-linejoin="round" stroke-linecap="butt" d="m330.13165 440.95395c-3.6851501 0 -9.036102 2.256897 -11.0494995 -0.29925537c-3.060913 -3.8860168 1.1022949 -9.3732605 3.261078 -13.654694" fill-rule="evenodd"/><path fill="#000000" fill-opacity="0.0" d="m323.2928 426.43307c-12.885864 0.9758301 -36.779816 10.904419 -38.738983 -1.5931702" fill-rule="evenodd"/><path stroke="#ffffff" stroke-width="4.0" stroke-linejoin="round" stroke-linecap="butt" d="m323.2928 426.43307c-12.885864 0.9758301 -36.779816 10.904419 -38.738983 -1.5931702" fill-rule="evenodd"/><path fill="#000000" fill-opacity="0.0" d="m286.67856 424.8399c-14.521393 1.143219 -27.23053 10.975433 -41.512436 13.884094c-30.605835 6.2331543 -62.291855 4.970093 -93.13725 9.826843" fill-rule="evenodd"/><path stroke="#ffffff" stroke-width="4.0" stroke-linejoin="round" stroke-linecap="butt" d="m286.67856 424.8399c-14.521393 1.143219 -27.23053 10.975433 -41.512436 13.884094c-30.605835 6.2331543 -62.291855 4.970093 -93.13725 9.826843" fill-rule="evenodd"/><path fill="#000000" fill-opacity="0.0" d="m153.30193 448.55115c-23.857574 1.2387695 -48.04088 -0.3951416 -71.95809 0.5197449" fill-rule="evenodd"/><path stroke="#ffffff" stroke-width="4.0" stroke-linejoin="round" stroke-linecap="butt" d="m153.30193 448.55115c-23.857574 1.2387695 -48.04088 -0.3951416 -71.95809 0.5197449" fill-rule="evenodd"/><path fill="#000000" fill-opacity="0.0" d="m82.597534 449.06976c-6.9809875 -5.6300964 17.207726 -5.4617004 26.123497 -6.1054688c27.49424 -1.98526 55.563133 0.36123657 82.516335 -5.4613953c45.285522 -9.782928 88.0177 -29.733154 129.98672 -49.482574c17.368042 -8.172882 31.83258 -22.497833 50.019653 -28.595123" fill-rule="evenodd"/><path stroke="#ffffff" stroke-width="4.0" stroke-linejoin="round" stroke-linecap="butt" d="m82.597534 449.06976c-6.9809875 -5.6300964 17.207726 -5.4617004 26.123497 -6.1054688c27.49424 -1.98526 55.563133 0.36123657 82.516335 -5.4613953c45.285522 -9.782928 88.0177 -29.733154 129.98672 -49.482574c17.368042 -8.172882 31.83258 -22.497833 50.019653 -28.595123" fill-rule="evenodd"/><path fill="#000000" fill-opacity="0.0" d="m370.42258 359.99844c12.41272 -15.256744 25.585693 -30.003357 36.605133 -46.260925" fill-rule="evenodd"/><path stroke="#ffffff" stroke-width="4.0" stroke-linejoin="round" stroke-linecap="butt" d="m370.42258 359.99844c12.41272 -15.256744 25.585693 -30.003357 36.605133 -46.260925" fill-rule="evenodd"/><path fill="#000000" fill-opacity="0.0" d="m81.94556 283.06036c-10.192421 0 5.3623123 -20.663086 12.569443 -27.86876c22.898468 -22.89389 56.408905 -31.81839 84.71773 -47.54068" fill-rule="evenodd"/><path stroke="#ffffff" stroke-width="4.0" stroke-linejoin="round" stroke-linecap="butt" d="m81.94556 283.06036c-10.192421 0 5.3623123 -20.663086 12.569443 -27.86876c22.898468 -22.89389 56.408905 -31.81839 84.71773 -47.54068" fill-rule="evenodd"/><path fill="#000000" fill-opacity="0.0" d="m177.47507 208.7037c13.193512 -5.684204 25.873032 -13.131882 39.657745 -16.84282" fill-rule="evenodd"/><path stroke="#ffffff" stroke-width="4.0" stroke-linejoin="round" stroke-linecap="butt" d="m177.47507 208.7037c13.193512 -5.684204 25.873032 -13.131882 39.657745 -16.84282" fill-rule="evenodd"/><path fill="#000000" fill-opacity="0.0" d="m215.30183 192.64677c53.097855 -25.336563 115.20436 -28.73059 174.1133 -35.74124" fill-rule="evenodd"/><path stroke="#ffffff" stroke-width="4.0" stroke-linejoin="round" stroke-linecap="butt" d="m215.30183 192.64677c53.097855 -25.336563 115.20436 -28.73059 174.1133 -35.74124" fill-rule="evenodd"/><path fill="#000000" fill-opacity="0.0" d="m388.0551 156.81102c16.605896 0 32.668762 6.276001 48.691406 10.7126465c8.667999 2.4001465 21.893799 5.6618958 22.708801 14.760696" fill-rule="evenodd"/><path stroke="#ffffff" stroke-width="4.0" stroke-linejoin="round" stroke-linecap="butt" d="m388.0551 156.81102c16.605896 0 32.668762 6.276001 48.691406 10.7126465c8.667999 2.4001465 21.893799 5.6618958 22.708801 14.760696" fill-rule="evenodd"/><path fill="#000000" fill-opacity="0.0" d="m459.45407 182.14174c0 13.976898 0.7416687 28.755463 6.7217712 41.388443c6.3580017 13.431244 23.45523 19.361649 30.671936 32.351715" fill-rule="evenodd"/><path stroke="#ffffff" stroke-width="4.0" stroke-linejoin="round" stroke-linecap="butt" d="m459.45407 182.14174c0 13.976898 0.7416687 28.755463 6.7217712 41.388443c6.3580017 13.431244 23.45523 19.361649 30.671936 32.351715" fill-rule="evenodd"/><path fill="#000000" fill-opacity="0.0" d="m495.37796 257.35657c10.509918 -7.3446045 24.2258 -7.615631 36.606598 -10.2148285" fill-rule="evenodd"/><path stroke="#ffffff" stroke-width="4.0" stroke-linejoin="round" stroke-linecap="butt" d="m495.37796 257.35657c10.509918 -7.3446045 24.2258 -7.615631 36.606598 -10.2148285" fill-rule="evenodd"/><path fill="#000000" fill-opacity="0.0" d="m587.6063 241.80577c-16.2229 0 -33.718933 0.7356415 -47.90027 8.6141815" fill-rule="evenodd"/><path stroke="#ffffff" stroke-width="4.0" stroke-linejoin="round" stroke-linecap="butt" d="m587.6063 241.80577c-16.2229 0 -33.718933 0.7356415 -47.90027 8.6141815" fill-rule="evenodd"/><path fill="#000000" fill-opacity="0.0" d="m541.105 248.84517c4.588318 26.837631 39.28955 42.722183 64.938354 44.018814c10.113342 0.5112915 22.684753 9.271118 30.304443 2.1887817" fill-rule="evenodd"/><path stroke="#ffffff" stroke-width="4.0" stroke-linejoin="round" stroke-linecap="butt" d="m541.105 248.84517c4.588318 26.837631 39.28955 42.722183 64.938354 44.018814c10.113342 0.5112915 22.684753 9.271118 30.304443 2.1887817" fill-rule="evenodd"/><path fill="#000000" fill-opacity="0.0" d="m80.51706 283.05908c48.186447 -62.09079 157.22261 -38.35669 237.47726 -38.35669" fill-rule="evenodd"/><path stroke="#ffffff" stroke-width="4.0" stroke-linejoin="round" stroke-linecap="butt" d="m80.51706 283.05908c48.186447 -62.09079 157.22261 -38.35669 237.47726 -38.35669" fill-rule="evenodd"/><path fill="#000000" fill-opacity="0.0" d="m317.99475 243.26772c12.374695 27.947037 36.27173 52.66365 63.864624 65.679306c7.748871 3.655182 17.511536 8.97876 25.173004 5.142761" fill-rule="evenodd"/><path stroke="#ffffff" stroke-width="4.0" stroke-linejoin="round" stroke-linecap="butt" d="m317.99475 243.26772c12.374695 27.947037 36.27173 52.66365 63.864624 65.679306c7.748871 3.655182 17.511536 8.97876 25.173004 5.142761" fill-rule="evenodd"/></g></svg>